<mxfile host="app.diagrams.net" agent="Mozilla/5.0 (Windows NT 10.0; Win64; x64) AppleWebKit/537.36 (KHTML, like Gecko) Chrome/128.0.0.0 Safari/537.36 OPR/114.0.0.0" version="24.8.0">
  <diagram id="C5RBs43oDa-KdzZeNtuy" name="Page-1">
    <mxGraphModel grid="1" page="1" gridSize="10" guides="1" tooltips="1" connect="1" arrows="1" fold="1" pageScale="1" pageWidth="827" pageHeight="1169" math="0" shadow="0">
      <root>
        <mxCell id="WIyWlLk6GJQsqaUBKTNV-0" />
        <mxCell id="WIyWlLk6GJQsqaUBKTNV-1" parent="WIyWlLk6GJQsqaUBKTNV-0" />
        <mxCell id="CTdfxThfMznAJBngBojm-176" style="edgeStyle=none;rounded=0;orthogonalLoop=1;jettySize=auto;html=1;exitX=0;exitY=0.5;exitDx=0;exitDy=0;entryX=1;entryY=0.5;entryDx=0;entryDy=0;startArrow=none;startFill=0;endArrow=none;endFill=0;strokeWidth=2;fontSize=18;" edge="1" parent="WIyWlLk6GJQsqaUBKTNV-1">
          <mxGeometry relative="1" as="geometry">
            <mxPoint x="500" y="570" as="sourcePoint" />
          </mxGeometry>
        </mxCell>
        <mxCell id="CTdfxThfMznAJBngBojm-178" style="edgeStyle=none;rounded=0;orthogonalLoop=1;jettySize=auto;html=1;exitX=0.5;exitY=1;exitDx=0;exitDy=0;entryX=0.75;entryY=0;entryDx=0;entryDy=0;startArrow=none;startFill=0;endArrow=none;endFill=0;strokeWidth=2;fontSize=18;" edge="1" parent="WIyWlLk6GJQsqaUBKTNV-1">
          <mxGeometry relative="1" as="geometry">
            <mxPoint x="413" y="520" as="sourcePoint" />
          </mxGeometry>
        </mxCell>
        <mxCell id="wUMz2S4foHRxm6oRCbhz-174" value="Olímpico" style="whiteSpace=wrap;html=1;align=center;fontSize=18;fontStyle=1;strokeWidth=2;fontFamily=Helvetica;" vertex="1" parent="WIyWlLk6GJQsqaUBKTNV-1">
          <mxGeometry x="-1543.12" y="-1630" width="130" height="40" as="geometry" />
        </mxCell>
        <mxCell id="wUMz2S4foHRxm6oRCbhz-175" value="Disciplina" style="whiteSpace=wrap;html=1;align=center;fontSize=18;fontStyle=1;strokeWidth=2;fontFamily=Helvetica;" vertex="1" parent="WIyWlLk6GJQsqaUBKTNV-1">
          <mxGeometry x="-1545.88" y="-2050" width="130" height="40" as="geometry" />
        </mxCell>
        <mxCell id="wUMz2S4foHRxm6oRCbhz-177" value="Localidad" style="whiteSpace=wrap;html=1;align=center;fontSize=18;fontStyle=1;strokeWidth=2;fontFamily=Helvetica;" vertex="1" parent="WIyWlLk6GJQsqaUBKTNV-1">
          <mxGeometry x="-1970.5" y="-2089" width="130" height="40" as="geometry" />
        </mxCell>
        <mxCell id="wUMz2S4foHRxm6oRCbhz-178" value="&lt;b&gt;d&lt;/b&gt;" style="triangle;whiteSpace=wrap;html=1;rotation=90;strokeWidth=2;horizontal=0;verticalAlign=top;fontSize=20;fontFamily=Helvetica;" vertex="1" parent="WIyWlLk6GJQsqaUBKTNV-1">
          <mxGeometry x="-1498.12" y="-1558.94" width="40" height="70" as="geometry" />
        </mxCell>
        <mxCell id="wUMz2S4foHRxm6oRCbhz-179" value="Juez" style="whiteSpace=wrap;html=1;align=center;fontSize=18;fontStyle=1;strokeWidth=2;fontFamily=Helvetica;container=0;" vertex="1" parent="WIyWlLk6GJQsqaUBKTNV-1">
          <mxGeometry x="-1723.12" y="-1438.94" width="130" height="40" as="geometry" />
        </mxCell>
        <mxCell id="wUMz2S4foHRxm6oRCbhz-180" value="Entrenador" style="whiteSpace=wrap;html=1;align=center;fontSize=18;fontStyle=1;strokeWidth=2;fontFamily=Helvetica;container=0;" vertex="1" parent="WIyWlLk6GJQsqaUBKTNV-1">
          <mxGeometry x="-1543.12" y="-1438.94" width="130" height="40" as="geometry" />
        </mxCell>
        <mxCell id="a7VPU_wNIrM3NiyMDv2A-12" style="rounded=0;orthogonalLoop=1;jettySize=auto;html=1;entryX=0;entryY=0.5;entryDx=0;entryDy=0;endArrow=none;endFill=0;shape=link;strokeWidth=2;exitX=0.75;exitY=1;exitDx=0;exitDy=0;" edge="1" parent="WIyWlLk6GJQsqaUBKTNV-1" source="wUMz2S4foHRxm6oRCbhz-174" target="wUMz2S4foHRxm6oRCbhz-290">
          <mxGeometry relative="1" as="geometry" />
        </mxCell>
        <mxCell id="wUMz2S4foHRxm6oRCbhz-181" value="Atleta" style="whiteSpace=wrap;html=1;align=center;fontSize=18;fontStyle=1;strokeWidth=2;fontFamily=Helvetica;container=0;" vertex="1" parent="WIyWlLk6GJQsqaUBKTNV-1">
          <mxGeometry x="-1366.94" y="-1438.94" width="130" height="40" as="geometry" />
        </mxCell>
        <mxCell id="wUMz2S4foHRxm6oRCbhz-202" value="NombreCompleto" style="ellipse;whiteSpace=wrap;html=1;align=center;fontSize=14;fontStyle=1;strokeWidth=2;fontFamily=Helvetica;" vertex="1" parent="WIyWlLk6GJQsqaUBKTNV-1">
          <mxGeometry x="-1736.5" y="-1630" width="150" height="40" as="geometry" />
        </mxCell>
        <mxCell id="wUMz2S4foHRxm6oRCbhz-203" value="Nombre" style="ellipse;whiteSpace=wrap;html=1;align=center;fontSize=14;fontStyle=1;strokeWidth=2;fontFamily=Helvetica;" vertex="1" parent="WIyWlLk6GJQsqaUBKTNV-1">
          <mxGeometry x="-1844" y="-1676.06" width="125" height="40" as="geometry" />
        </mxCell>
        <mxCell id="wUMz2S4foHRxm6oRCbhz-204" value="ApellidoPaterno" style="ellipse;whiteSpace=wrap;html=1;align=center;fontSize=14;fontStyle=1;strokeWidth=2;fontFamily=Helvetica;" vertex="1" parent="WIyWlLk6GJQsqaUBKTNV-1">
          <mxGeometry x="-1905" y="-1630" width="125" height="40" as="geometry" />
        </mxCell>
        <mxCell id="wUMz2S4foHRxm6oRCbhz-205" value="ApellidoMaterno" style="ellipse;whiteSpace=wrap;html=1;align=center;fontSize=14;fontStyle=1;strokeWidth=2;fontFamily=Helvetica;" vertex="1" parent="WIyWlLk6GJQsqaUBKTNV-1">
          <mxGeometry x="-1844" y="-1575" width="125" height="40" as="geometry" />
        </mxCell>
        <mxCell id="wUMz2S4foHRxm6oRCbhz-208" value="País" style="whiteSpace=wrap;html=1;align=center;fontSize=18;fontStyle=1;strokeWidth=2;fontFamily=Helvetica;" vertex="1" parent="WIyWlLk6GJQsqaUBKTNV-1">
          <mxGeometry x="-1200" y="-1602.12" width="130" height="40" as="geometry" />
        </mxCell>
        <mxCell id="wUMz2S4foHRxm6oRCbhz-209" value="TRICLAVE" style="ellipse;whiteSpace=wrap;html=1;align=center;fontStyle=5;strokeWidth=2;fontSize=14;fontFamily=Helvetica;" vertex="1" parent="WIyWlLk6GJQsqaUBKTNV-1">
          <mxGeometry x="-1150" y="-1663.06" width="120" height="40" as="geometry" />
        </mxCell>
        <mxCell id="a7VPU_wNIrM3NiyMDv2A-23" style="rounded=0;orthogonalLoop=1;jettySize=auto;html=1;entryX=0.75;entryY=1;entryDx=0;entryDy=0;endArrow=none;endFill=0;strokeWidth=2;exitX=0;exitY=0.5;exitDx=0;exitDy=0;" edge="1" parent="WIyWlLk6GJQsqaUBKTNV-1" source="wUMz2S4foHRxm6oRCbhz-210" target="wUMz2S4foHRxm6oRCbhz-208">
          <mxGeometry relative="1" as="geometry" />
        </mxCell>
        <mxCell id="wUMz2S4foHRxm6oRCbhz-210" value="Nombre" style="ellipse;whiteSpace=wrap;html=1;align=center;fontSize=14;fontStyle=1;strokeWidth=2;fontFamily=Helvetica;" vertex="1" parent="WIyWlLk6GJQsqaUBKTNV-1">
          <mxGeometry x="-1070" y="-1543.9399999999998" width="125" height="40" as="geometry" />
        </mxCell>
        <mxCell id="wUMz2S4foHRxm6oRCbhz-216" value="Género" style="ellipse;whiteSpace=wrap;html=1;align=center;fontSize=14;fontStyle=1;strokeWidth=2;fontFamily=Helvetica;" vertex="1" parent="WIyWlLk6GJQsqaUBKTNV-1">
          <mxGeometry x="-1703.12" y="-1690" width="132.5" height="40" as="geometry" />
        </mxCell>
        <mxCell id="wUMz2S4foHRxm6oRCbhz-218" value="Teléfono" style="ellipse;shape=doubleEllipse;margin=3;whiteSpace=wrap;html=1;align=center;strokeWidth=2;verticalAlign=middle;fontFamily=Helvetica;fontSize=14;fontStyle=1;" vertex="1" parent="WIyWlLk6GJQsqaUBKTNV-1">
          <mxGeometry x="-1354.9999999999998" y="-1600" width="125" height="50" as="geometry" />
        </mxCell>
        <mxCell id="wUMz2S4foHRxm6oRCbhz-219" value="Email" style="ellipse;shape=doubleEllipse;margin=3;whiteSpace=wrap;html=1;align=center;strokeWidth=2;verticalAlign=middle;fontFamily=Helvetica;fontSize=14;fontStyle=1;" vertex="1" parent="WIyWlLk6GJQsqaUBKTNV-1">
          <mxGeometry x="-1339.9999999999998" y="-1663.06" width="125" height="50" as="geometry" />
        </mxCell>
        <mxCell id="wUMz2S4foHRxm6oRCbhz-221" value="&lt;h6&gt;&lt;font style=&quot;font-size: 14px;&quot;&gt;Nombre&lt;/font&gt;&lt;/h6&gt;" style="ellipse;whiteSpace=wrap;html=1;align=center;fontStyle=1;strokeWidth=2;fontSize=14;fontFamily=Helvetica;" vertex="1" parent="WIyWlLk6GJQsqaUBKTNV-1">
          <mxGeometry x="-1687" y="-2125.94" width="120" height="40" as="geometry" />
        </mxCell>
        <mxCell id="wUMz2S4foHRxm6oRCbhz-222" value="Categoría" style="ellipse;whiteSpace=wrap;html=1;align=center;fontSize=14;fontStyle=1;strokeWidth=2;fontFamily=Helvetica;" vertex="1" parent="WIyWlLk6GJQsqaUBKTNV-1">
          <mxGeometry x="-1662" y="-2188.94" width="125" height="40" as="geometry" />
        </mxCell>
        <mxCell id="wUMz2S4foHRxm6oRCbhz-227" value="&lt;span style=&quot;font-size: 18px; font-weight: 700;&quot;&gt;Medalla&lt;/span&gt;" style="shape=ext;margin=3;double=1;whiteSpace=wrap;html=1;align=center;strokeWidth=2;fontFamily=Helvetica;" vertex="1" parent="WIyWlLk6GJQsqaUBKTNV-1">
          <mxGeometry x="-1277" y="-1898.94" width="140" height="40" as="geometry" />
        </mxCell>
        <mxCell id="a7VPU_wNIrM3NiyMDv2A-30" style="rounded=0;orthogonalLoop=1;jettySize=auto;html=1;entryX=1;entryY=0.5;entryDx=0;entryDy=0;shape=flexArrow;fillStyle=solid;strokeWidth=2;align=center;verticalAlign=middle;fontFamily=Helvetica;fontSize=14;fontColor=default;labelBackgroundColor=default;startArrow=none;startFill=0;startSize=2.860215053763441;endArrow=block;endFill=1;endSize=1.9673469387755103;sourcePerimeterSpacing=0;targetPerimeterSpacing=0;exitX=0;exitY=0.5;exitDx=0;exitDy=0;endWidth=2.432319866722199;width=4.081632653061225;startWidth=5;" edge="1" parent="WIyWlLk6GJQsqaUBKTNV-1" source="wUMz2S4foHRxm6oRCbhz-230" target="wUMz2S4foHRxm6oRCbhz-175">
          <mxGeometry relative="1" as="geometry" />
        </mxCell>
        <mxCell id="a7VPU_wNIrM3NiyMDv2A-31" style="rounded=0;orthogonalLoop=1;jettySize=auto;html=1;entryX=0.5;entryY=0;entryDx=0;entryDy=0;shape=link;fillStyle=solid;strokeWidth=2;align=center;verticalAlign=middle;fontFamily=Helvetica;fontSize=14;fontColor=default;labelBackgroundColor=default;startArrow=none;startFill=0;endArrow=block;endFill=1;sourcePerimeterSpacing=0;targetPerimeterSpacing=0;endWidth=2.945736434108527;startWidth=5;exitX=1;exitY=0.5;exitDx=0;exitDy=0;edgeStyle=orthogonalEdgeStyle;" edge="1" parent="WIyWlLk6GJQsqaUBKTNV-1" source="wUMz2S4foHRxm6oRCbhz-230" target="wUMz2S4foHRxm6oRCbhz-227">
          <mxGeometry relative="1" as="geometry">
            <mxPoint x="-1222" y="-2008.94" as="sourcePoint" />
          </mxGeometry>
        </mxCell>
        <mxCell id="wUMz2S4foHRxm6oRCbhz-230" value="&lt;span style=&quot;font-size: 18px; font-weight: 700;&quot;&gt;Tener&lt;/span&gt;" style="shape=rhombus;double=1;perimeter=rhombusPerimeter;whiteSpace=wrap;html=1;align=center;strokeWidth=2;fontFamily=Helvetica;" vertex="1" parent="WIyWlLk6GJQsqaUBKTNV-1">
          <mxGeometry x="-1356.25" y="-2060" width="120" height="60" as="geometry" />
        </mxCell>
        <mxCell id="a7VPU_wNIrM3NiyMDv2A-29" style="rounded=0;orthogonalLoop=1;jettySize=auto;html=1;endArrow=none;endFill=0;strokeWidth=2;entryX=1;entryY=0.5;entryDx=0;entryDy=0;" edge="1" parent="WIyWlLk6GJQsqaUBKTNV-1" source="wUMz2S4foHRxm6oRCbhz-232" target="wUMz2S4foHRxm6oRCbhz-227">
          <mxGeometry relative="1" as="geometry" />
        </mxCell>
        <mxCell id="wUMz2S4foHRxm6oRCbhz-232" value="Lugar" style="ellipse;whiteSpace=wrap;html=1;align=center;fontSize=14;fontStyle=1;strokeWidth=2;fontFamily=Helvetica;" vertex="1" parent="WIyWlLk6GJQsqaUBKTNV-1">
          <mxGeometry x="-1072.75" y="-1898.94" width="110.37" height="40" as="geometry" />
        </mxCell>
        <mxCell id="wUMz2S4foHRxm6oRCbhz-235" value="IdLocalidad" style="ellipse;whiteSpace=wrap;html=1;align=center;fontStyle=5;strokeWidth=2;fontSize=14;fontFamily=Helvetica;" vertex="1" parent="WIyWlLk6GJQsqaUBKTNV-1">
          <mxGeometry x="-2055.5" y="-2229" width="120" height="40" as="geometry" />
        </mxCell>
        <mxCell id="wUMz2S4foHRxm6oRCbhz-236" value="Dirección" style="ellipse;whiteSpace=wrap;html=1;align=center;fontSize=14;fontStyle=1;strokeWidth=2;fontFamily=Helvetica;direction=east;" vertex="1" parent="WIyWlLk6GJQsqaUBKTNV-1">
          <mxGeometry x="-2150.5" y="-2159" width="125" height="40" as="geometry" />
        </mxCell>
        <mxCell id="wUMz2S4foHRxm6oRCbhz-237" value="Calle" style="ellipse;whiteSpace=wrap;html=1;align=center;fontSize=14;fontStyle=1;strokeWidth=2;fontFamily=Helvetica;direction=east;" vertex="1" parent="WIyWlLk6GJQsqaUBKTNV-1">
          <mxGeometry x="-2291.5" y="-2229" width="125" height="40" as="geometry" />
        </mxCell>
        <mxCell id="wUMz2S4foHRxm6oRCbhz-238" value="No." style="ellipse;whiteSpace=wrap;html=1;align=center;fontSize=14;fontStyle=1;strokeWidth=2;fontFamily=Helvetica;direction=east;" vertex="1" parent="WIyWlLk6GJQsqaUBKTNV-1">
          <mxGeometry x="-2351.5" y="-2182" width="125" height="40" as="geometry" />
        </mxCell>
        <mxCell id="wUMz2S4foHRxm6oRCbhz-239" value="Ciudad" style="ellipse;whiteSpace=wrap;html=1;align=center;fontSize=14;fontStyle=1;strokeWidth=2;fontFamily=Helvetica;direction=east;" vertex="1" parent="WIyWlLk6GJQsqaUBKTNV-1">
          <mxGeometry x="-2351.5" y="-2136" width="125" height="40" as="geometry" />
        </mxCell>
        <mxCell id="wUMz2S4foHRxm6oRCbhz-242" value="País" style="ellipse;whiteSpace=wrap;html=1;align=center;fontSize=14;fontStyle=1;strokeWidth=2;fontFamily=Helvetica;direction=east;" vertex="1" parent="WIyWlLk6GJQsqaUBKTNV-1">
          <mxGeometry x="-2291.5" y="-2089" width="125" height="40" as="geometry" />
        </mxCell>
        <mxCell id="wUMz2S4foHRxm6oRCbhz-243" value="Aforo" style="ellipse;whiteSpace=wrap;html=1;align=center;fontSize=14;fontStyle=1;strokeWidth=2;fontFamily=Helvetica;" vertex="1" parent="WIyWlLk6GJQsqaUBKTNV-1">
          <mxGeometry x="-2138.5" y="-2080.06" width="125" height="40" as="geometry" />
        </mxCell>
        <mxCell id="a7VPU_wNIrM3NiyMDv2A-0" style="rounded=0;orthogonalLoop=1;jettySize=auto;html=1;entryX=0;entryY=0;entryDx=0;entryDy=0;endArrow=none;endFill=0;exitX=1;exitY=0.5;exitDx=0;exitDy=0;" edge="1" parent="WIyWlLk6GJQsqaUBKTNV-1" source="wUMz2S4foHRxm6oRCbhz-244" target="aHQsfqzNa3ddM0tjzzTg-17">
          <mxGeometry relative="1" as="geometry">
            <mxPoint x="-2047.75" y="-1823.06" as="targetPoint" />
          </mxGeometry>
        </mxCell>
        <mxCell id="wUMz2S4foHRxm6oRCbhz-244" value="Fecha" style="ellipse;whiteSpace=wrap;html=1;align=center;fontSize=14;fontStyle=1;strokeWidth=2;fontFamily=Helvetica;" vertex="1" parent="WIyWlLk6GJQsqaUBKTNV-1">
          <mxGeometry x="-2265" y="-1885.94" width="125" height="40" as="geometry" />
        </mxCell>
        <mxCell id="wUMz2S4foHRxm6oRCbhz-245" value="DuraciónMax" style="ellipse;whiteSpace=wrap;html=1;align=center;fontSize=14;fontStyle=1;strokeWidth=2;fontFamily=Helvetica;" vertex="1" parent="WIyWlLk6GJQsqaUBKTNV-1">
          <mxGeometry x="-2211" y="-1955.94" width="125" height="40" as="geometry" />
        </mxCell>
        <mxCell id="a7VPU_wNIrM3NiyMDv2A-2" style="rounded=0;orthogonalLoop=1;jettySize=auto;html=1;endArrow=none;endFill=0;entryX=0.25;entryY=1;entryDx=0;entryDy=0;exitX=1;exitY=0;exitDx=0;exitDy=0;strokeWidth=2;" edge="1" parent="WIyWlLk6GJQsqaUBKTNV-1" source="wUMz2S4foHRxm6oRCbhz-256" target="aHQsfqzNa3ddM0tjzzTg-17">
          <mxGeometry relative="1" as="geometry">
            <mxPoint x="-2021.9166666666667" y="-1813.06" as="targetPoint" />
          </mxGeometry>
        </mxCell>
        <mxCell id="wUMz2S4foHRxm6oRCbhz-256" value="PrecioInic" style="ellipse;whiteSpace=wrap;html=1;align=center;fontSize=14;fontStyle=1;strokeWidth=2;fontFamily=Helvetica;" vertex="1" parent="WIyWlLk6GJQsqaUBKTNV-1">
          <mxGeometry x="-2110" y="-1783.06" width="125" height="40" as="geometry" />
        </mxCell>
        <mxCell id="a7VPU_wNIrM3NiyMDv2A-3" style="rounded=0;orthogonalLoop=1;jettySize=auto;html=1;entryX=0;entryY=1;entryDx=0;entryDy=0;endArrow=none;endFill=0;exitX=0;exitY=0;exitDx=0;exitDy=0;strokeWidth=2;" edge="1" parent="WIyWlLk6GJQsqaUBKTNV-1" source="aHQsfqzNa3ddM0tjzzTg-21" target="aHQsfqzNa3ddM0tjzzTg-17">
          <mxGeometry relative="1" as="geometry">
            <mxPoint x="-2236.8573708560666" y="-1643.0304824555146" as="sourcePoint" />
            <mxPoint x="-1907.75" y="-1833.06" as="targetPoint" />
          </mxGeometry>
        </mxCell>
        <mxCell id="wUMz2S4foHRxm6oRCbhz-261" style="edgeStyle=none;rounded=0;orthogonalLoop=1;jettySize=auto;html=1;entryX=1;entryY=1;entryDx=0;entryDy=0;endArrow=none;endFill=0;strokeWidth=2;fontSize=14;fontFamily=Helvetica;exitX=0;exitY=0.25;exitDx=0;exitDy=0;" edge="1" parent="WIyWlLk6GJQsqaUBKTNV-1" source="wUMz2S4foHRxm6oRCbhz-174" target="wUMz2S4foHRxm6oRCbhz-216">
          <mxGeometry relative="1" as="geometry">
            <mxPoint x="-1932" y="-1412" as="sourcePoint" />
            <mxPoint x="-2232" y="-1412" as="targetPoint" />
          </mxGeometry>
        </mxCell>
        <mxCell id="wUMz2S4foHRxm6oRCbhz-262" style="edgeStyle=none;rounded=0;orthogonalLoop=1;jettySize=auto;html=1;entryX=1;entryY=0;entryDx=0;entryDy=0;endArrow=none;endFill=0;strokeWidth=2;fontSize=14;fontFamily=Helvetica;exitX=0;exitY=0.75;exitDx=0;exitDy=0;" edge="1" parent="WIyWlLk6GJQsqaUBKTNV-1" source="wUMz2S4foHRxm6oRCbhz-174" target="wUMz2S4foHRxm6oRCbhz-294">
          <mxGeometry relative="1" as="geometry">
            <mxPoint x="-1922" y="-1402" as="sourcePoint" />
            <mxPoint x="-1605.3058261758406" y="-1529.1421356237313" as="targetPoint" />
          </mxGeometry>
        </mxCell>
        <mxCell id="wUMz2S4foHRxm6oRCbhz-263" style="edgeStyle=none;rounded=0;orthogonalLoop=1;jettySize=auto;html=1;entryX=1;entryY=1;entryDx=0;entryDy=0;endArrow=none;endFill=0;strokeWidth=2;fontSize=14;fontFamily=Helvetica;exitX=0;exitY=0;exitDx=0;exitDy=0;" edge="1" parent="WIyWlLk6GJQsqaUBKTNV-1" source="wUMz2S4foHRxm6oRCbhz-175" target="wUMz2S4foHRxm6oRCbhz-221">
          <mxGeometry relative="1" as="geometry">
            <mxPoint x="-1365.88" y="-1853" as="sourcePoint" />
            <mxPoint x="-1665.88" y="-1853" as="targetPoint" />
          </mxGeometry>
        </mxCell>
        <mxCell id="wUMz2S4foHRxm6oRCbhz-264" style="edgeStyle=none;rounded=0;orthogonalLoop=1;jettySize=auto;html=1;entryX=1;entryY=1;entryDx=0;entryDy=0;endArrow=none;endFill=0;strokeWidth=2;fontSize=14;fontFamily=Helvetica;exitX=0;exitY=0;exitDx=0;exitDy=0;" edge="1" parent="WIyWlLk6GJQsqaUBKTNV-1" source="wUMz2S4foHRxm6oRCbhz-202" target="wUMz2S4foHRxm6oRCbhz-203">
          <mxGeometry relative="1" as="geometry">
            <mxPoint x="-1902" y="-1382" as="sourcePoint" />
            <mxPoint x="-2202" y="-1382" as="targetPoint" />
          </mxGeometry>
        </mxCell>
        <mxCell id="wUMz2S4foHRxm6oRCbhz-265" style="edgeStyle=none;rounded=0;orthogonalLoop=1;jettySize=auto;html=1;entryX=0;entryY=1;entryDx=0;entryDy=0;endArrow=none;endFill=0;strokeWidth=2;fontSize=14;fontFamily=Helvetica;exitX=1;exitY=0;exitDx=0;exitDy=0;" edge="1" parent="WIyWlLk6GJQsqaUBKTNV-1" source="wUMz2S4foHRxm6oRCbhz-205" target="wUMz2S4foHRxm6oRCbhz-202">
          <mxGeometry relative="1" as="geometry">
            <mxPoint x="-1892" y="-1372" as="sourcePoint" />
            <mxPoint x="-2192" y="-1372" as="targetPoint" />
          </mxGeometry>
        </mxCell>
        <mxCell id="wUMz2S4foHRxm6oRCbhz-266" style="edgeStyle=none;rounded=0;orthogonalLoop=1;jettySize=auto;html=1;entryX=1;entryY=0.5;entryDx=0;entryDy=0;endArrow=none;endFill=0;strokeWidth=2;fontSize=14;fontFamily=Helvetica;exitX=0;exitY=0.5;exitDx=0;exitDy=0;" edge="1" parent="WIyWlLk6GJQsqaUBKTNV-1" source="wUMz2S4foHRxm6oRCbhz-202" target="wUMz2S4foHRxm6oRCbhz-204">
          <mxGeometry relative="1" as="geometry">
            <mxPoint x="-1746.9999999999995" y="-1613.94" as="sourcePoint" />
            <mxPoint x="-1847" y="-1610" as="targetPoint" />
          </mxGeometry>
        </mxCell>
        <mxCell id="wUMz2S4foHRxm6oRCbhz-267" style="edgeStyle=none;rounded=0;orthogonalLoop=1;jettySize=auto;html=1;entryX=0.5;entryY=0;entryDx=0;entryDy=0;endArrow=none;endFill=0;strokeWidth=2;fontSize=14;fontFamily=Helvetica;exitX=1;exitY=0.5;exitDx=0;exitDy=0;" edge="1" parent="WIyWlLk6GJQsqaUBKTNV-1" source="wUMz2S4foHRxm6oRCbhz-178" target="wUMz2S4foHRxm6oRCbhz-180">
          <mxGeometry relative="1" as="geometry">
            <mxPoint x="-1329.88" y="-2137.4500000000003" as="sourcePoint" />
            <mxPoint x="-1629.88" y="-2137.4500000000003" as="targetPoint" />
          </mxGeometry>
        </mxCell>
        <mxCell id="wUMz2S4foHRxm6oRCbhz-268" style="edgeStyle=none;rounded=0;orthogonalLoop=1;jettySize=auto;html=1;entryX=0.5;entryY=0;entryDx=0;entryDy=0;endArrow=none;endFill=0;strokeWidth=2;fontSize=14;fontFamily=Helvetica;exitX=0.25;exitY=0;exitDx=0;exitDy=0;" edge="1" parent="WIyWlLk6GJQsqaUBKTNV-1" source="wUMz2S4foHRxm6oRCbhz-181" target="wUMz2S4foHRxm6oRCbhz-178">
          <mxGeometry relative="1" as="geometry">
            <mxPoint x="-1319.88" y="-2127.4500000000003" as="sourcePoint" />
            <mxPoint x="-1619.88" y="-2127.4500000000003" as="targetPoint" />
          </mxGeometry>
        </mxCell>
        <mxCell id="wUMz2S4foHRxm6oRCbhz-269" style="edgeStyle=none;rounded=0;orthogonalLoop=1;jettySize=auto;html=1;entryX=0.5;entryY=1;entryDx=0;entryDy=0;endArrow=none;endFill=0;strokeWidth=2;fontSize=14;fontFamily=Helvetica;exitX=0.75;exitY=0;exitDx=0;exitDy=0;" edge="1" parent="WIyWlLk6GJQsqaUBKTNV-1" source="wUMz2S4foHRxm6oRCbhz-179" target="wUMz2S4foHRxm6oRCbhz-178">
          <mxGeometry relative="1" as="geometry">
            <mxPoint x="-1309.88" y="-2117.4500000000003" as="sourcePoint" />
            <mxPoint x="-1609.88" y="-2117.4500000000003" as="targetPoint" />
          </mxGeometry>
        </mxCell>
        <mxCell id="wUMz2S4foHRxm6oRCbhz-270" style="edgeStyle=none;rounded=0;orthogonalLoop=1;jettySize=auto;html=1;entryX=1;entryY=0.75;entryDx=0;entryDy=0;endArrow=none;endFill=0;strokeWidth=2;fontSize=14;fontFamily=Helvetica;exitX=0;exitY=0;exitDx=0;exitDy=0;" edge="1" parent="WIyWlLk6GJQsqaUBKTNV-1" source="wUMz2S4foHRxm6oRCbhz-218" target="wUMz2S4foHRxm6oRCbhz-174">
          <mxGeometry relative="1" as="geometry">
            <mxPoint x="-1352" y="-1763" as="sourcePoint" />
            <mxPoint x="-1652" y="-1763" as="targetPoint" />
          </mxGeometry>
        </mxCell>
        <mxCell id="wUMz2S4foHRxm6oRCbhz-271" style="edgeStyle=none;rounded=0;orthogonalLoop=1;jettySize=auto;html=1;entryX=0;entryY=0.5;entryDx=0;entryDy=0;endArrow=none;endFill=0;strokeWidth=2;fontSize=14;fontFamily=Helvetica;exitX=1;exitY=0.25;exitDx=0;exitDy=0;" edge="1" parent="WIyWlLk6GJQsqaUBKTNV-1" source="wUMz2S4foHRxm6oRCbhz-174" target="wUMz2S4foHRxm6oRCbhz-219">
          <mxGeometry relative="1" as="geometry">
            <mxPoint x="-1342" y="-1753" as="sourcePoint" />
            <mxPoint x="-1642" y="-1753" as="targetPoint" />
          </mxGeometry>
        </mxCell>
        <mxCell id="wUMz2S4foHRxm6oRCbhz-272" style="edgeStyle=none;rounded=0;orthogonalLoop=1;jettySize=auto;html=1;entryX=0;entryY=1;entryDx=0;entryDy=0;endArrow=none;endFill=0;strokeWidth=2;fontSize=14;fontFamily=Helvetica;exitX=0.75;exitY=0;exitDx=0;exitDy=0;" edge="1" parent="WIyWlLk6GJQsqaUBKTNV-1" source="wUMz2S4foHRxm6oRCbhz-175" target="aHQsfqzNa3ddM0tjzzTg-4">
          <mxGeometry relative="1" as="geometry">
            <mxPoint x="-1355.88" y="-1843" as="sourcePoint" />
            <mxPoint x="-1395.4563322190352" y="-2142.80118315515" as="targetPoint" />
          </mxGeometry>
        </mxCell>
        <mxCell id="wUMz2S4foHRxm6oRCbhz-274" style="edgeStyle=none;rounded=0;orthogonalLoop=1;jettySize=auto;html=1;entryX=1;entryY=0.5;entryDx=0;entryDy=0;endArrow=none;endFill=0;strokeWidth=2;fontSize=14;fontFamily=Helvetica;exitX=0;exitY=0.5;exitDx=0;exitDy=0;" edge="1" parent="WIyWlLk6GJQsqaUBKTNV-1" source="wUMz2S4foHRxm6oRCbhz-174" target="wUMz2S4foHRxm6oRCbhz-202">
          <mxGeometry relative="1" as="geometry">
            <mxPoint x="-1332" y="-1743" as="sourcePoint" />
            <mxPoint x="-1632" y="-1743" as="targetPoint" />
          </mxGeometry>
        </mxCell>
        <mxCell id="wUMz2S4foHRxm6oRCbhz-275" style="edgeStyle=none;rounded=0;orthogonalLoop=1;jettySize=auto;html=1;entryX=1;entryY=1;entryDx=0;entryDy=0;endArrow=none;endFill=0;strokeWidth=2;fontSize=14;fontFamily=Helvetica;exitX=0.25;exitY=0;exitDx=0;exitDy=0;" edge="1" parent="WIyWlLk6GJQsqaUBKTNV-1" source="wUMz2S4foHRxm6oRCbhz-175" target="wUMz2S4foHRxm6oRCbhz-222">
          <mxGeometry relative="1" as="geometry">
            <mxPoint x="-1345.88" y="-1833" as="sourcePoint" />
            <mxPoint x="-1645.88" y="-1833" as="targetPoint" />
          </mxGeometry>
        </mxCell>
        <mxCell id="wUMz2S4foHRxm6oRCbhz-276" style="edgeStyle=none;rounded=0;orthogonalLoop=1;jettySize=auto;html=1;entryX=0;entryY=1;entryDx=0;entryDy=0;endArrow=none;endFill=0;strokeWidth=2;fontSize=14;fontFamily=Helvetica;exitX=1;exitY=0;exitDx=0;exitDy=0;" edge="1" parent="WIyWlLk6GJQsqaUBKTNV-1" source="wUMz2S4foHRxm6oRCbhz-175" target="aHQsfqzNa3ddM0tjzzTg-5">
          <mxGeometry relative="1" as="geometry">
            <mxPoint x="-1372" y="-1945.95" as="sourcePoint" />
            <mxPoint x="-1368.913008588991" y="-2084.7978643762694" as="targetPoint" />
          </mxGeometry>
        </mxCell>
        <mxCell id="wUMz2S4foHRxm6oRCbhz-277" style="edgeStyle=none;rounded=0;orthogonalLoop=1;jettySize=auto;html=1;entryX=0;entryY=1;entryDx=0;entryDy=0;endArrow=none;endFill=0;strokeWidth=2;fontSize=14;fontFamily=Helvetica;exitX=1;exitY=0.5;exitDx=0;exitDy=0;" edge="1" parent="WIyWlLk6GJQsqaUBKTNV-1" source="wUMz2S4foHRxm6oRCbhz-239" target="wUMz2S4foHRxm6oRCbhz-236">
          <mxGeometry relative="1" as="geometry">
            <mxPoint x="-1830.5" y="-2287.94" as="sourcePoint" />
            <mxPoint x="-2130.5" y="-2287.94" as="targetPoint" />
          </mxGeometry>
        </mxCell>
        <mxCell id="wUMz2S4foHRxm6oRCbhz-278" style="edgeStyle=none;rounded=0;orthogonalLoop=1;jettySize=auto;html=1;entryX=1;entryY=0.5;entryDx=0;entryDy=0;endArrow=none;endFill=0;strokeWidth=2;fontSize=14;fontFamily=Helvetica;exitX=0.5;exitY=1;exitDx=0;exitDy=0;" edge="1" parent="WIyWlLk6GJQsqaUBKTNV-1" source="wUMz2S4foHRxm6oRCbhz-236" target="wUMz2S4foHRxm6oRCbhz-242">
          <mxGeometry relative="1" as="geometry">
            <mxPoint x="-1820.5" y="-2277.94" as="sourcePoint" />
            <mxPoint x="-2120.5" y="-2277.94" as="targetPoint" />
          </mxGeometry>
        </mxCell>
        <mxCell id="wUMz2S4foHRxm6oRCbhz-279" style="edgeStyle=none;rounded=0;orthogonalLoop=1;jettySize=auto;html=1;entryX=1;entryY=0.5;entryDx=0;entryDy=0;endArrow=none;endFill=0;strokeWidth=2;fontSize=14;fontFamily=Helvetica;exitX=0.5;exitY=0;exitDx=0;exitDy=0;" edge="1" parent="WIyWlLk6GJQsqaUBKTNV-1" source="wUMz2S4foHRxm6oRCbhz-236" target="wUMz2S4foHRxm6oRCbhz-237">
          <mxGeometry relative="1" as="geometry">
            <mxPoint x="-1810.5" y="-2267.94" as="sourcePoint" />
            <mxPoint x="-2110.5" y="-2267.94" as="targetPoint" />
          </mxGeometry>
        </mxCell>
        <mxCell id="wUMz2S4foHRxm6oRCbhz-280" style="edgeStyle=none;rounded=0;orthogonalLoop=1;jettySize=auto;html=1;entryX=1;entryY=0.5;entryDx=0;entryDy=0;endArrow=none;endFill=0;strokeWidth=2;fontSize=14;fontFamily=Helvetica;exitX=0;exitY=0.5;exitDx=0;exitDy=0;" edge="1" parent="WIyWlLk6GJQsqaUBKTNV-1" source="wUMz2S4foHRxm6oRCbhz-177" target="wUMz2S4foHRxm6oRCbhz-243">
          <mxGeometry relative="1" as="geometry">
            <mxPoint x="-1800.5" y="-2257.94" as="sourcePoint" />
            <mxPoint x="-2008.9836677809558" y="-2048.198816844853" as="targetPoint" />
          </mxGeometry>
        </mxCell>
        <mxCell id="wUMz2S4foHRxm6oRCbhz-281" style="edgeStyle=none;rounded=0;orthogonalLoop=1;jettySize=auto;html=1;entryX=1;entryY=0.5;entryDx=0;entryDy=0;endArrow=none;endFill=0;strokeWidth=2;fontSize=14;fontFamily=Helvetica;exitX=0.25;exitY=0;exitDx=0;exitDy=0;" edge="1" parent="WIyWlLk6GJQsqaUBKTNV-1" source="wUMz2S4foHRxm6oRCbhz-177" target="wUMz2S4foHRxm6oRCbhz-236">
          <mxGeometry relative="1" as="geometry">
            <mxPoint x="-1790.5" y="-2247.94" as="sourcePoint" />
            <mxPoint x="-2090.5" y="-2247.94" as="targetPoint" />
          </mxGeometry>
        </mxCell>
        <mxCell id="wUMz2S4foHRxm6oRCbhz-282" style="edgeStyle=none;rounded=0;orthogonalLoop=1;jettySize=auto;html=1;entryX=0.5;entryY=1;entryDx=0;entryDy=0;endArrow=none;endFill=0;strokeWidth=2;fontSize=14;fontFamily=Helvetica;exitX=0.5;exitY=0;exitDx=0;exitDy=0;" edge="1" parent="WIyWlLk6GJQsqaUBKTNV-1" source="wUMz2S4foHRxm6oRCbhz-177" target="wUMz2S4foHRxm6oRCbhz-235">
          <mxGeometry relative="1" as="geometry">
            <mxPoint x="-1780.5" y="-2237.94" as="sourcePoint" />
            <mxPoint x="-2080.5" y="-2237.94" as="targetPoint" />
          </mxGeometry>
        </mxCell>
        <mxCell id="wUMz2S4foHRxm6oRCbhz-283" style="edgeStyle=none;rounded=0;orthogonalLoop=1;jettySize=auto;html=1;entryX=0;entryY=0;entryDx=0;entryDy=0;endArrow=none;endFill=0;strokeWidth=2;fontSize=14;fontFamily=Helvetica;exitX=1;exitY=0.5;exitDx=0;exitDy=0;" edge="1" parent="WIyWlLk6GJQsqaUBKTNV-1" source="wUMz2S4foHRxm6oRCbhz-238" target="wUMz2S4foHRxm6oRCbhz-236">
          <mxGeometry relative="1" as="geometry">
            <mxPoint x="-1820.5" y="-2277.94" as="sourcePoint" />
            <mxPoint x="-2120.5" y="-2277.94" as="targetPoint" />
          </mxGeometry>
        </mxCell>
        <mxCell id="wUMz2S4foHRxm6oRCbhz-288" style="rounded=0;orthogonalLoop=1;jettySize=auto;html=1;endArrow=none;endFill=0;strokeWidth=2;fontSize=14;shape=flexArrow;endSize=2;startSize=2;width=3;startWidth=5;endWidth=5;fontFamily=Helvetica;entryX=0.5;entryY=1;entryDx=0;entryDy=0;exitX=0;exitY=0.5;exitDx=0;exitDy=0;" edge="1" parent="WIyWlLk6GJQsqaUBKTNV-1" source="wUMz2S4foHRxm6oRCbhz-178" target="wUMz2S4foHRxm6oRCbhz-174">
          <mxGeometry relative="1" as="geometry">
            <mxPoint x="-1170.25" y="-1546.56" as="sourcePoint" />
            <mxPoint x="-1470.25" y="-1546.56" as="targetPoint" />
          </mxGeometry>
        </mxCell>
        <mxCell id="wUMz2S4foHRxm6oRCbhz-290" value="Representar" style="shape=rhombus;perimeter=rhombusPerimeter;whiteSpace=wrap;html=1;align=center;strokeWidth=2;fontSize=18;fontStyle=1;fontFamily=Helvetica;" vertex="1" parent="WIyWlLk6GJQsqaUBKTNV-1">
          <mxGeometry x="-1300" y="-1535" width="143.88" height="60" as="geometry" />
        </mxCell>
        <mxCell id="wUMz2S4foHRxm6oRCbhz-294" value="FechaNacimiento" style="ellipse;whiteSpace=wrap;html=1;align=center;fontSize=14;fontStyle=1;strokeWidth=2;fontFamily=Helvetica;" vertex="1" parent="WIyWlLk6GJQsqaUBKTNV-1">
          <mxGeometry x="-1703.12" y="-1570" width="145" height="40" as="geometry" />
        </mxCell>
        <mxCell id="a7VPU_wNIrM3NiyMDv2A-1" style="rounded=0;orthogonalLoop=1;jettySize=auto;html=1;entryX=0.5;entryY=0;entryDx=0;entryDy=0;endArrow=none;endFill=0;strokeWidth=2;exitX=1;exitY=1;exitDx=0;exitDy=0;" edge="1" parent="WIyWlLk6GJQsqaUBKTNV-1" source="wUMz2S4foHRxm6oRCbhz-245" target="aHQsfqzNa3ddM0tjzzTg-17">
          <mxGeometry relative="1" as="geometry">
            <mxPoint x="-1977.75" y="-1853.06" as="targetPoint" />
          </mxGeometry>
        </mxCell>
        <mxCell id="a7VPU_wNIrM3NiyMDv2A-15" style="edgeStyle=orthogonalEdgeStyle;rounded=0;orthogonalLoop=1;jettySize=auto;html=1;shape=flexArrow;entryX=0;entryY=0.25;entryDx=0;entryDy=0;width=3.0232558139534884;endSize=2.7;endWidth=3.2504056246619797;strokeWidth=2;exitX=1;exitY=0.5;exitDx=0;exitDy=0;" edge="1" parent="WIyWlLk6GJQsqaUBKTNV-1" source="a7VPU_wNIrM3NiyMDv2A-14" target="wUMz2S4foHRxm6oRCbhz-175">
          <mxGeometry relative="1" as="geometry" />
        </mxCell>
        <mxCell id="a7VPU_wNIrM3NiyMDv2A-16" style="edgeStyle=orthogonalEdgeStyle;rounded=0;orthogonalLoop=1;jettySize=auto;html=1;entryX=1;entryY=0.5;entryDx=0;entryDy=0;endArrow=blockThin;endFill=1;strokeWidth=2;exitX=0;exitY=0.5;exitDx=0;exitDy=0;" edge="1" parent="WIyWlLk6GJQsqaUBKTNV-1" source="a7VPU_wNIrM3NiyMDv2A-14" target="wUMz2S4foHRxm6oRCbhz-177">
          <mxGeometry relative="1" as="geometry">
            <mxPoint x="-1736.5" y="-2010.06" as="sourcePoint" />
          </mxGeometry>
        </mxCell>
        <mxCell id="a7VPU_wNIrM3NiyMDv2A-14" value="Llevar" style="shape=rhombus;perimeter=rhombusPerimeter;whiteSpace=wrap;html=1;align=center;strokeWidth=2;verticalAlign=middle;fontFamily=Helvetica;fontSize=18;fontStyle=1;" vertex="1" parent="WIyWlLk6GJQsqaUBKTNV-1">
          <mxGeometry x="-1780" y="-2070" width="120" height="60" as="geometry" />
        </mxCell>
        <mxCell id="a7VPU_wNIrM3NiyMDv2A-22" style="rounded=0;orthogonalLoop=1;jettySize=auto;html=1;entryX=0.699;entryY=0.026;entryDx=0;entryDy=0;entryPerimeter=0;endArrow=none;endFill=0;strokeWidth=2;exitX=0.5;exitY=1;exitDx=0;exitDy=0;" edge="1" parent="WIyWlLk6GJQsqaUBKTNV-1" source="wUMz2S4foHRxm6oRCbhz-209" target="wUMz2S4foHRxm6oRCbhz-208">
          <mxGeometry relative="1" as="geometry" />
        </mxCell>
        <mxCell id="a7VPU_wNIrM3NiyMDv2A-37" style="rounded=0;orthogonalLoop=1;jettySize=auto;html=1;entryX=1;entryY=0.25;entryDx=0;entryDy=0;endArrow=none;endFill=0;shape=link;exitX=0;exitY=0.5;exitDx=0;exitDy=0;strokeWidth=2;" edge="1" parent="WIyWlLk6GJQsqaUBKTNV-1" source="a7VPU_wNIrM3NiyMDv2A-35" target="aHQsfqzNa3ddM0tjzzTg-17">
          <mxGeometry relative="1" as="geometry">
            <mxPoint x="-1775.8799999999999" y="-1895" as="targetPoint" />
          </mxGeometry>
        </mxCell>
        <mxCell id="a7VPU_wNIrM3NiyMDv2A-35" value="Desarrollar" style="shape=rhombus;perimeter=rhombusPerimeter;whiteSpace=wrap;html=1;align=center;strokeWidth=2;verticalAlign=middle;fontFamily=Helvetica;fontSize=18;fontStyle=1;" vertex="1" parent="WIyWlLk6GJQsqaUBKTNV-1">
          <mxGeometry x="-1788.75" y="-1968.94" width="120" height="60" as="geometry" />
        </mxCell>
        <mxCell id="a7VPU_wNIrM3NiyMDv2A-42" style="edgeStyle=orthogonalEdgeStyle;rounded=0;orthogonalLoop=1;jettySize=auto;html=1;entryX=0.5;entryY=1;entryDx=0;entryDy=0;endArrow=none;endFill=0;shape=link;exitX=0.5;exitY=0;exitDx=0;exitDy=0;strokeWidth=2;" edge="1" parent="WIyWlLk6GJQsqaUBKTNV-1" source="aHQsfqzNa3ddM0tjzzTg-6" target="wUMz2S4foHRxm6oRCbhz-227">
          <mxGeometry relative="1" as="geometry">
            <mxPoint x="-1147" y="-1809" as="sourcePoint" />
            <mxPoint x="-1146.9500000000003" y="-2010.96" as="targetPoint" />
            <Array as="points">
              <mxPoint x="-860" y="-1790" />
              <mxPoint x="-1170" y="-1790" />
              <mxPoint x="-1207" y="-1789" />
            </Array>
          </mxGeometry>
        </mxCell>
        <mxCell id="a7VPU_wNIrM3NiyMDv2A-45" style="rounded=0;orthogonalLoop=1;jettySize=auto;html=1;entryX=1;entryY=0.75;entryDx=0;entryDy=0;strokeWidth=2;endArrow=none;endFill=0;shape=link;exitX=0;exitY=0.5;exitDx=0;exitDy=0;" edge="1" parent="WIyWlLk6GJQsqaUBKTNV-1" source="a7VPU_wNIrM3NiyMDv2A-43" target="aHQsfqzNa3ddM0tjzzTg-17">
          <mxGeometry relative="1" as="geometry">
            <mxPoint x="-1808.3799999999999" y="-1875" as="targetPoint" />
          </mxGeometry>
        </mxCell>
        <mxCell id="a7VPU_wNIrM3NiyMDv2A-43" value="Participar" style="shape=rhombus;perimeter=rhombusPerimeter;whiteSpace=wrap;html=1;align=center;strokeWidth=2;verticalAlign=middle;fontFamily=Helvetica;fontSize=18;fontStyle=1;" vertex="1" parent="WIyWlLk6GJQsqaUBKTNV-1">
          <mxGeometry x="-1752.0000000000002" y="-1866.06" width="120" height="60" as="geometry" />
        </mxCell>
        <mxCell id="a7VPU_wNIrM3NiyMDv2A-44" style="rounded=0;orthogonalLoop=1;jettySize=auto;html=1;entryX=0.208;entryY=0.026;entryDx=0;entryDy=0;entryPerimeter=0;shape=link;exitX=1;exitY=0.5;exitDx=0;exitDy=0;strokeWidth=2;" edge="1" parent="WIyWlLk6GJQsqaUBKTNV-1" source="a7VPU_wNIrM3NiyMDv2A-43" target="wUMz2S4foHRxm6oRCbhz-174">
          <mxGeometry relative="1" as="geometry" />
        </mxCell>
        <mxCell id="fmIuEjpRtbA2Y_ldEw41-1" style="rounded=0;orthogonalLoop=1;jettySize=auto;html=1;endArrow=none;endFill=0;exitX=0.5;exitY=1;exitDx=0;exitDy=0;entryX=0.75;entryY=0;entryDx=0;entryDy=0;strokeWidth=2;" edge="1" parent="WIyWlLk6GJQsqaUBKTNV-1" source="aHQsfqzNa3ddM0tjzzTg-27" target="aHQsfqzNa3ddM0tjzzTg-17">
          <mxGeometry relative="1" as="geometry">
            <mxPoint x="-1970.2500000000002" y="-1943.06" as="sourcePoint" />
            <mxPoint x="-1977.75" y="-1853.06" as="targetPoint" />
          </mxGeometry>
        </mxCell>
        <mxCell id="fmIuEjpRtbA2Y_ldEw41-4" value="IdOlimpico" style="ellipse;whiteSpace=wrap;html=1;align=center;fontStyle=5;fontSize=14;strokeWidth=2;" vertex="1" parent="WIyWlLk6GJQsqaUBKTNV-1">
          <mxGeometry x="-1382.38" y="-1727" width="122" height="40" as="geometry" />
        </mxCell>
        <mxCell id="fmIuEjpRtbA2Y_ldEw41-5" style="rounded=0;orthogonalLoop=1;jettySize=auto;html=1;entryX=1;entryY=0;entryDx=0;entryDy=0;endArrow=none;endFill=0;exitX=0;exitY=1;exitDx=0;exitDy=0;strokeWidth=2;" edge="1" parent="WIyWlLk6GJQsqaUBKTNV-1" source="fmIuEjpRtbA2Y_ldEw41-4" target="wUMz2S4foHRxm6oRCbhz-174">
          <mxGeometry relative="1" as="geometry" />
        </mxCell>
        <mxCell id="LfYDnbp_2xXx2foyyTNY-1" value="Entrenar" style="shape=rhombus;perimeter=rhombusPerimeter;whiteSpace=wrap;html=1;align=center;strokeWidth=2;fontSize=18;fontStyle=1;fontFamily=Helvetica;" vertex="1" parent="WIyWlLk6GJQsqaUBKTNV-1">
          <mxGeometry x="-1440" y="-1338.94" width="120" height="60" as="geometry" />
        </mxCell>
        <mxCell id="LfYDnbp_2xXx2foyyTNY-2" style="rounded=0;orthogonalLoop=1;jettySize=auto;html=1;entryX=0.5;entryY=1;entryDx=0;entryDy=0;endArrow=block;endFill=0;shape=flexArrow;exitX=0;exitY=0.5;exitDx=0;exitDy=0;startArrow=none;startFill=0;endWidth=6.241869109252621;endSize=2.064516129032258;width=3.225806451612903;strokeWidth=2;" edge="1" parent="WIyWlLk6GJQsqaUBKTNV-1" source="LfYDnbp_2xXx2foyyTNY-1" target="wUMz2S4foHRxm6oRCbhz-180">
          <mxGeometry relative="1" as="geometry">
            <mxPoint x="-1155.12" y="-1548.88" as="sourcePoint" />
            <mxPoint x="-1122.12" y="-1744.88" as="targetPoint" />
          </mxGeometry>
        </mxCell>
        <mxCell id="LfYDnbp_2xXx2foyyTNY-3" style="rounded=0;orthogonalLoop=1;jettySize=auto;html=1;entryX=0.5;entryY=1;entryDx=0;entryDy=0;endArrow=none;endFill=0;shape=link;exitX=1;exitY=0.5;exitDx=0;exitDy=0;strokeWidth=2;" edge="1" parent="WIyWlLk6GJQsqaUBKTNV-1" source="LfYDnbp_2xXx2foyyTNY-1" target="wUMz2S4foHRxm6oRCbhz-181">
          <mxGeometry relative="1" as="geometry">
            <mxPoint x="-1328" y="-1473.94" as="sourcePoint" />
            <mxPoint x="-1355" y="-1438.94" as="targetPoint" />
          </mxGeometry>
        </mxCell>
        <mxCell id="2QSEGVwYbfr8R1-7Tm6a-7" style="rounded=0;orthogonalLoop=1;jettySize=auto;html=1;endArrow=none;endFill=0;exitX=0;exitY=1;exitDx=0;exitDy=0;strokeWidth=2;entryX=0.75;entryY=0;entryDx=0;entryDy=0;" edge="1" parent="WIyWlLk6GJQsqaUBKTNV-1" source="aHQsfqzNa3ddM0tjzzTg-10" target="wUMz2S4foHRxm6oRCbhz-227">
          <mxGeometry relative="1" as="geometry">
            <mxPoint x="-1032" y="-2028.94" as="targetPoint" />
            <mxPoint x="-987.144678915201" y="-2059.7130332457996" as="sourcePoint" />
          </mxGeometry>
        </mxCell>
        <mxCell id="LfYDnbp_2xXx2foyyTNY-5" value="LlaveEliminatoria" style="ellipse;whiteSpace=wrap;html=1;align=center;fontSize=14;fontStyle=1;strokeWidth=2;fontFamily=Helvetica;" vertex="1" parent="WIyWlLk6GJQsqaUBKTNV-1">
          <mxGeometry x="-2010" y="-1737" width="135" height="40" as="geometry" />
        </mxCell>
        <mxCell id="LfYDnbp_2xXx2foyyTNY-6" value="PrecioFinal" style="ellipse;whiteSpace=wrap;html=1;align=center;fontSize=14;fontStyle=1;strokeWidth=2;dashed=1;fontFamily=Helvetica;" vertex="1" parent="WIyWlLk6GJQsqaUBKTNV-1">
          <mxGeometry x="-1930" y="-1792.06" width="125" height="40" as="geometry" />
        </mxCell>
        <mxCell id="LfYDnbp_2xXx2foyyTNY-7" style="rounded=0;orthogonalLoop=1;jettySize=auto;html=1;endArrow=none;endFill=0;exitX=0.5;exitY=0;exitDx=0;exitDy=0;entryX=0.5;entryY=1;entryDx=0;entryDy=0;strokeWidth=2;" edge="1" parent="WIyWlLk6GJQsqaUBKTNV-1" source="LfYDnbp_2xXx2foyyTNY-5" target="aHQsfqzNa3ddM0tjzzTg-17">
          <mxGeometry relative="1" as="geometry">
            <mxPoint x="-2064" y="-1779" as="sourcePoint" />
            <mxPoint x="-1977.75" y="-1813.06" as="targetPoint" />
          </mxGeometry>
        </mxCell>
        <mxCell id="LfYDnbp_2xXx2foyyTNY-8" style="rounded=0;orthogonalLoop=1;jettySize=auto;html=1;endArrow=none;endFill=0;exitX=0;exitY=0;exitDx=0;exitDy=0;entryX=0.75;entryY=1;entryDx=0;entryDy=0;strokeWidth=2;" edge="1" parent="WIyWlLk6GJQsqaUBKTNV-1" source="LfYDnbp_2xXx2foyyTNY-6" target="aHQsfqzNa3ddM0tjzzTg-17">
          <mxGeometry relative="1" as="geometry">
            <mxPoint x="-2053" y="-1717" as="sourcePoint" />
            <mxPoint x="-1977.75" y="-1813.06" as="targetPoint" />
          </mxGeometry>
        </mxCell>
        <mxCell id="fmIuEjpRtbA2Y_ldEw41-6" value="&lt;b&gt;&lt;font style=&quot;font-size: 14px;&quot;&gt;Tipo&lt;/font&gt;&lt;/b&gt;" style="ellipse;whiteSpace=wrap;html=1;align=center;strokeWidth=2;" vertex="1" parent="WIyWlLk6GJQsqaUBKTNV-1">
          <mxGeometry x="-1901.5" y="-2215.9399999999996" width="100" height="33.94" as="geometry" />
        </mxCell>
        <mxCell id="fmIuEjpRtbA2Y_ldEw41-8" style="rounded=0;orthogonalLoop=1;jettySize=auto;html=1;entryX=0.75;entryY=0;entryDx=0;entryDy=0;strokeWidth=2;endArrow=none;endFill=0;" edge="1" parent="WIyWlLk6GJQsqaUBKTNV-1" source="fmIuEjpRtbA2Y_ldEw41-6" target="wUMz2S4foHRxm6oRCbhz-177">
          <mxGeometry relative="1" as="geometry" />
        </mxCell>
        <mxCell id="aHQsfqzNa3ddM0tjzzTg-1" style="rounded=0;orthogonalLoop=1;jettySize=auto;html=1;exitX=0;exitY=1;exitDx=0;exitDy=0;entryX=1;entryY=0;entryDx=0;entryDy=0;endArrow=none;endFill=0;strokeWidth=2;" edge="1" parent="WIyWlLk6GJQsqaUBKTNV-1" source="aHQsfqzNa3ddM0tjzzTg-0" target="wUMz2S4foHRxm6oRCbhz-177">
          <mxGeometry relative="1" as="geometry" />
        </mxCell>
        <mxCell id="aHQsfqzNa3ddM0tjzzTg-0" value="&lt;b&gt;&lt;font style=&quot;font-size: 14px;&quot;&gt;Nombre&lt;/font&gt;&lt;/b&gt;" style="ellipse;whiteSpace=wrap;html=1;align=center;strokeWidth=2;" vertex="1" parent="WIyWlLk6GJQsqaUBKTNV-1">
          <mxGeometry x="-1836.5" y="-2165.06" width="100" height="33.94" as="geometry" />
        </mxCell>
        <mxCell id="aHQsfqzNa3ddM0tjzzTg-2" value="&lt;h6&gt;&lt;font style=&quot;font-size: 14px;&quot;&gt;IdDisciplina&lt;/font&gt;&lt;/h6&gt;" style="ellipse;whiteSpace=wrap;html=1;align=center;fontStyle=5;strokeWidth=2;fontSize=14;fontFamily=Helvetica;" vertex="1" parent="WIyWlLk6GJQsqaUBKTNV-1">
          <mxGeometry x="-1537" y="-2228.94" width="120" height="40" as="geometry" />
        </mxCell>
        <mxCell id="aHQsfqzNa3ddM0tjzzTg-3" style="edgeStyle=none;rounded=0;orthogonalLoop=1;jettySize=auto;html=1;entryX=0.5;entryY=1;entryDx=0;entryDy=0;endArrow=none;endFill=0;strokeWidth=2;fontSize=14;fontFamily=Helvetica;exitX=0.5;exitY=0;exitDx=0;exitDy=0;" edge="1" parent="WIyWlLk6GJQsqaUBKTNV-1" source="wUMz2S4foHRxm6oRCbhz-175" target="aHQsfqzNa3ddM0tjzzTg-2">
          <mxGeometry relative="1" as="geometry">
            <mxPoint x="-1471" y="-2039.94" as="sourcePoint" />
            <mxPoint x="-1545" y="-2144.94" as="targetPoint" />
          </mxGeometry>
        </mxCell>
        <mxCell id="aHQsfqzNa3ddM0tjzzTg-4" value="Patrocinador" style="ellipse;shape=doubleEllipse;margin=3;whiteSpace=wrap;html=1;align=center;strokeWidth=2;verticalAlign=middle;fontFamily=Helvetica;fontSize=14;fontStyle=1;" vertex="1" parent="WIyWlLk6GJQsqaUBKTNV-1">
          <mxGeometry x="-1402" y="-2193.94" width="125" height="50" as="geometry" />
        </mxCell>
        <mxCell id="aHQsfqzNa3ddM0tjzzTg-5" value="TotalParticipantes" style="ellipse;whiteSpace=wrap;html=1;align=center;fontSize=14;fontStyle=1;strokeWidth=2;dashed=1;fontFamily=Helvetica;" vertex="1" parent="WIyWlLk6GJQsqaUBKTNV-1">
          <mxGeometry x="-1385.38" y="-2118.94" width="149.13" height="40" as="geometry" />
        </mxCell>
        <mxCell id="aHQsfqzNa3ddM0tjzzTg-6" value="Ganar" style="shape=rhombus;perimeter=rhombusPerimeter;whiteSpace=wrap;html=1;align=center;strokeWidth=2;fontSize=18;fontStyle=1;fontFamily=Helvetica;" vertex="1" parent="WIyWlLk6GJQsqaUBKTNV-1">
          <mxGeometry x="-920" y="-1623.06" width="120" height="60" as="geometry" />
        </mxCell>
        <mxCell id="aHQsfqzNa3ddM0tjzzTg-9" value="" style="group" connectable="0" vertex="1" parent="WIyWlLk6GJQsqaUBKTNV-1">
          <mxGeometry x="-1150" y="-1958.94" width="110" height="40" as="geometry" />
        </mxCell>
        <mxCell id="aHQsfqzNa3ddM0tjzzTg-10" value="IdMedalla" style="ellipse;align=center;fontSize=14;fontStyle=1;strokeWidth=2;fontFamily=Helvetica;horizontal=1;textShadow=1;labelBorderColor=none;labelBackgroundColor=none;whiteSpace=wrap;html=1;" vertex="1" parent="aHQsfqzNa3ddM0tjzzTg-9">
          <mxGeometry width="110" height="40" as="geometry" />
        </mxCell>
        <mxCell id="aHQsfqzNa3ddM0tjzzTg-11" style="edgeStyle=none;rounded=0;orthogonalLoop=1;jettySize=auto;html=1;endArrow=none;endFill=0;strokeWidth=2;fontSize=14;fontFamily=Helvetica;exitX=0.982;exitY=0.649;exitDx=0;exitDy=0;exitPerimeter=0;dashed=1;dashPattern=1 1;entryX=0.023;entryY=0.67;entryDx=0;entryDy=0;entryPerimeter=0;" edge="1" parent="aHQsfqzNa3ddM0tjzzTg-9" source="aHQsfqzNa3ddM0tjzzTg-10" target="aHQsfqzNa3ddM0tjzzTg-10">
          <mxGeometry relative="1" as="geometry">
            <mxPoint x="92.4" y="30" as="sourcePoint" />
            <mxPoint x="4.4" y="27" as="targetPoint" />
            <Array as="points">
              <mxPoint x="48.4" y="27" />
            </Array>
          </mxGeometry>
        </mxCell>
        <mxCell id="aHQsfqzNa3ddM0tjzzTg-13" style="edgeStyle=none;rounded=0;orthogonalLoop=1;jettySize=auto;html=1;entryX=0.5;entryY=1;entryDx=0;entryDy=0;endArrow=none;endFill=0;strokeWidth=2;fontSize=14;fontFamily=Helvetica;exitX=0.5;exitY=0;exitDx=0;exitDy=0;shape=link;" edge="1" parent="WIyWlLk6GJQsqaUBKTNV-1" source="aHQsfqzNa3ddM0tjzzTg-14" target="wUMz2S4foHRxm6oRCbhz-175">
          <mxGeometry relative="1" as="geometry">
            <mxPoint x="-1492" y="-1798.94" as="sourcePoint" />
            <mxPoint x="-1467" y="-2178.94" as="targetPoint" />
          </mxGeometry>
        </mxCell>
        <mxCell id="aHQsfqzNa3ddM0tjzzTg-14" value="Trabajar" style="shape=rhombus;perimeter=rhombusPerimeter;whiteSpace=wrap;html=1;align=center;strokeWidth=2;verticalAlign=middle;fontFamily=Helvetica;fontSize=18;fontStyle=1;" vertex="1" parent="WIyWlLk6GJQsqaUBKTNV-1">
          <mxGeometry x="-1540" y="-1873.94" width="120" height="60" as="geometry" />
        </mxCell>
        <mxCell id="aHQsfqzNa3ddM0tjzzTg-15" style="edgeStyle=none;rounded=0;orthogonalLoop=1;jettySize=auto;html=1;entryX=0.5;entryY=1;entryDx=0;entryDy=0;endArrow=none;endFill=0;strokeWidth=2;fontSize=14;fontFamily=Helvetica;shape=link;" edge="1" parent="WIyWlLk6GJQsqaUBKTNV-1" source="wUMz2S4foHRxm6oRCbhz-174" target="aHQsfqzNa3ddM0tjzzTg-14">
          <mxGeometry relative="1" as="geometry">
            <mxPoint x="-1479" y="-1774.94" as="sourcePoint" />
            <mxPoint x="-1471" y="-1999.94" as="targetPoint" />
          </mxGeometry>
        </mxCell>
        <mxCell id="aHQsfqzNa3ddM0tjzzTg-16" style="edgeStyle=orthogonalEdgeStyle;rounded=0;orthogonalLoop=1;jettySize=auto;html=1;entryX=0.75;entryY=0;entryDx=0;entryDy=0;endArrow=blockThin;endFill=1;exitX=0.5;exitY=1;exitDx=0;exitDy=0;strokeWidth=2;align=center;verticalAlign=middle;fontFamily=Helvetica;fontSize=11;fontColor=default;labelBackgroundColor=default;" edge="1" parent="WIyWlLk6GJQsqaUBKTNV-1" source="aHQsfqzNa3ddM0tjzzTg-6" target="wUMz2S4foHRxm6oRCbhz-181">
          <mxGeometry relative="1" as="geometry">
            <mxPoint x="-1737" y="-2019.94" as="sourcePoint" />
            <mxPoint x="-1841" y="-2088.94" as="targetPoint" />
            <Array as="points">
              <mxPoint x="-860" y="-1460" />
              <mxPoint x="-1269" y="-1460" />
            </Array>
          </mxGeometry>
        </mxCell>
        <mxCell id="aHQsfqzNa3ddM0tjzzTg-17" value="Evento" style="whiteSpace=wrap;html=1;align=center;fontSize=18;fontStyle=1;strokeWidth=2;fontFamily=Helvetica;" vertex="1" parent="WIyWlLk6GJQsqaUBKTNV-1">
          <mxGeometry x="-2070" y="-1893.06" width="130" height="40" as="geometry" />
        </mxCell>
        <mxCell id="aHQsfqzNa3ddM0tjzzTg-19" value="Usuario" style="whiteSpace=wrap;html=1;align=center;fontSize=18;fontStyle=1;strokeWidth=2;fontFamily=Helvetica;" vertex="1" parent="WIyWlLk6GJQsqaUBKTNV-1">
          <mxGeometry x="-2470" y="-1703.06" width="130" height="40" as="geometry" />
        </mxCell>
        <mxCell id="aHQsfqzNa3ddM0tjzzTg-20" value="Visitar" style="shape=rhombus;perimeter=rhombusPerimeter;whiteSpace=wrap;html=1;align=center;strokeWidth=2;verticalAlign=middle;fontFamily=Helvetica;fontSize=18;fontStyle=1;" vertex="1" parent="WIyWlLk6GJQsqaUBKTNV-1">
          <mxGeometry x="-2280" y="-1783.06" width="120" height="60" as="geometry" />
        </mxCell>
        <mxCell id="aHQsfqzNa3ddM0tjzzTg-21" value="EntradasVendidas" style="ellipse;whiteSpace=wrap;html=1;align=center;fontSize=14;fontStyle=1;strokeWidth=2;dashed=1;fontFamily=Helvetica;" vertex="1" parent="WIyWlLk6GJQsqaUBKTNV-1">
          <mxGeometry x="-2180" y="-1727" width="145" height="40" as="geometry" />
        </mxCell>
        <mxCell id="aHQsfqzNa3ddM0tjzzTg-22" style="edgeStyle=none;rounded=0;orthogonalLoop=1;jettySize=auto;html=1;entryX=1;entryY=0;entryDx=0;entryDy=0;endArrow=none;endFill=0;strokeWidth=2;fontSize=14;fontFamily=Helvetica;exitX=0;exitY=0.5;exitDx=0;exitDy=0;shape=link;" edge="1" parent="WIyWlLk6GJQsqaUBKTNV-1" source="aHQsfqzNa3ddM0tjzzTg-17" target="aHQsfqzNa3ddM0tjzzTg-20">
          <mxGeometry relative="1" as="geometry">
            <mxPoint x="-2147" y="-1863" as="sourcePoint" />
            <mxPoint x="-2274" y="-1816" as="targetPoint" />
          </mxGeometry>
        </mxCell>
        <mxCell id="aHQsfqzNa3ddM0tjzzTg-23" style="edgeStyle=none;rounded=0;orthogonalLoop=1;jettySize=auto;html=1;entryX=0.75;entryY=0;entryDx=0;entryDy=0;endArrow=none;endFill=0;strokeWidth=2;fontSize=14;fontFamily=Helvetica;exitX=0;exitY=1;exitDx=0;exitDy=0;shape=link;" edge="1" parent="WIyWlLk6GJQsqaUBKTNV-1" source="aHQsfqzNa3ddM0tjzzTg-20" target="aHQsfqzNa3ddM0tjzzTg-19">
          <mxGeometry relative="1" as="geometry">
            <mxPoint x="-2060" y="-1863" as="sourcePoint" />
            <mxPoint x="-2180" y="-1758" as="targetPoint" />
          </mxGeometry>
        </mxCell>
        <mxCell id="aHQsfqzNa3ddM0tjzzTg-24" value="&lt;span style=&quot;border-bottom: 1px dotted; font-size: 14px;&quot;&gt;&lt;b style=&quot;font-size: 14px;&quot;&gt;IdUsuario&lt;/b&gt;&lt;/span&gt;" style="ellipse;whiteSpace=wrap;html=1;align=center;strokeWidth=2;fontSize=14;" vertex="1" parent="WIyWlLk6GJQsqaUBKTNV-1">
          <mxGeometry x="-2365" y="-1637" width="100" height="40" as="geometry" />
        </mxCell>
        <mxCell id="aHQsfqzNa3ddM0tjzzTg-25" style="rounded=0;orthogonalLoop=1;jettySize=auto;html=1;entryX=0.5;entryY=0;entryDx=0;entryDy=0;endArrow=none;endFill=0;strokeWidth=2;exitX=0.75;exitY=1;exitDx=0;exitDy=0;" edge="1" parent="WIyWlLk6GJQsqaUBKTNV-1" source="aHQsfqzNa3ddM0tjzzTg-19" target="aHQsfqzNa3ddM0tjzzTg-24">
          <mxGeometry relative="1" as="geometry">
            <mxPoint x="-2073" y="-1926" as="sourcePoint" />
            <mxPoint x="-1995" y="-1883" as="targetPoint" />
          </mxGeometry>
        </mxCell>
        <mxCell id="aHQsfqzNa3ddM0tjzzTg-27" value="IdEvento" style="ellipse;whiteSpace=wrap;html=1;align=center;fontStyle=5;strokeWidth=2;fontSize=14;fontFamily=Helvetica;" vertex="1" parent="WIyWlLk6GJQsqaUBKTNV-1">
          <mxGeometry x="-2065" y="-1968.94" width="120" height="40" as="geometry" />
        </mxCell>
        <mxCell id="jbIDEJBj4j2RFKNRdLLG-0" style="edgeStyle=orthogonalEdgeStyle;rounded=0;orthogonalLoop=1;jettySize=auto;html=1;shape=flexArrow;entryX=0;entryY=0.75;entryDx=0;entryDy=0;width=3.0232558139534884;endSize=2.7;endWidth=3.2504056246619797;strokeWidth=2;exitX=1;exitY=0.5;exitDx=0;exitDy=0;" edge="1" parent="WIyWlLk6GJQsqaUBKTNV-1" source="a7VPU_wNIrM3NiyMDv2A-35" target="wUMz2S4foHRxm6oRCbhz-175">
          <mxGeometry relative="1" as="geometry">
            <mxPoint x="-1617" y="-2029.94" as="sourcePoint" />
            <mxPoint x="-1536" y="-2029.94" as="targetPoint" />
            <Array as="points">
              <mxPoint x="-1622" y="-1938.94" />
              <mxPoint x="-1622" y="-2019.94" />
            </Array>
          </mxGeometry>
        </mxCell>
        <mxCell id="BIu0PducW3lUotW8cYey-0" style="rounded=0;orthogonalLoop=1;jettySize=auto;html=1;shape=flexArrow;entryX=0.5;entryY=1;entryDx=0;entryDy=0;width=3.0232558139534884;endSize=2.7;endWidth=3.2504056246619797;strokeWidth=2;exitX=1;exitY=0.5;exitDx=0;exitDy=0;" edge="1" parent="WIyWlLk6GJQsqaUBKTNV-1" source="wUMz2S4foHRxm6oRCbhz-290" target="wUMz2S4foHRxm6oRCbhz-208">
          <mxGeometry relative="1" as="geometry">
            <mxPoint x="-961.37" y="-1287.94" as="sourcePoint" />
            <mxPoint x="-838.37" y="-1368.94" as="targetPoint" />
          </mxGeometry>
        </mxCell>
      </root>
    </mxGraphModel>
  </diagram>
</mxfile>
